<svg version="1.1" xmlns="http://www.w3.org/2000/svg" xmlns:xlink="http://www.w3.org/1999/xlink" width="91.001" height="50.75474" viewBox="0,0,91.001,50.75474"><defs><linearGradient x1="194.5004" y1="180.00019" x2="285.5004" y2="180.00019" gradientUnits="userSpaceOnUse" id="color-1"><stop offset="0.012" stop-color="#a7a9ac"/><stop offset="1" stop-color="#414042"/></linearGradient><linearGradient x1="197.9135" y1="179.3966" x2="282.0864" y2="179.3966" gradientUnits="userSpaceOnUse" id="color-2"><stop offset="0" stop-color="#d1d2d3"/><stop offset="1" stop-color="#a4a5a8"/></linearGradient></defs><g transform="translate(-194.4995,-154.62263)"><g data-paper-data="{&quot;isPaintingLayer&quot;:true}" fill-rule="nonzero" stroke="none" stroke-width="1" stroke-linecap="butt" stroke-linejoin="miter" stroke-miterlimit="10" stroke-dasharray="" stroke-dashoffset="0" style="mix-blend-mode: normal"><path d="M285.5005,197.38892c0,4.41152 -3.854,7.98845 -8.605,7.98845h-73.792c-4.752,0 -8.604,-3.57786 -8.604,-7.98845v-34.77877c0,-4.41152 3.852,-7.98752 8.604,-7.98752h73.791c4.754,0 8.605,3.576 8.605,7.98752v34.77877z" fill="url(#color-1)"/><path d="M282.0855,161.72707v35.33849c0,2.69977 -2.327,4.89581 -5.191,4.89581h-73.791c-2.861,0 -5.19,-2.19604 -5.19,-4.89581v-35.33943c0,-2.69977 2.329,-4.89581 5.19,-4.89581h73.791c2.864,0 5.191,2.19698 5.191,4.89675z" fill="url(#color-2)"/><text transform="translate(211.06001,186) scale(0.5,0.5)" font-size="40" xml:space="preserve" fill="#000000" fill-rule="nonzero" stroke="none" stroke-width="1" stroke-linecap="butt" stroke-linejoin="miter" stroke-miterlimit="10" stroke-dasharray="" stroke-dashoffset="0" font-family="Sans Serif" font-weight="normal" text-anchor="start" style="mix-blend-mode: normal"><tspan x="0" dy="0">粗细-1</tspan></text></g></g></svg>