<svg version="1.1" xmlns="http://www.w3.org/2000/svg" xmlns:xlink="http://www.w3.org/1999/xlink" width="92.26303" height="72.35998" viewBox="0,0,92.26303,72.35998"><defs><linearGradient x1="210.44755" y1="133.72131" x2="210.44755" y2="137.29745" gradientUnits="userSpaceOnUse" id="color-1"><stop offset="0" stop-color="#c6c6c6"/><stop offset="1" stop-color="#ffffff"/></linearGradient><linearGradient x1="194.50041" y1="180.35214" x2="286.76243" y2="180.35214" gradientUnits="userSpaceOnUse" id="color-2"><stop offset="0.012" stop-color="#a7a9ac"/><stop offset="1" stop-color="#414042"/></linearGradient><linearGradient x1="197.96135" y1="180.35274" x2="283.30159" y2="180.35274" gradientUnits="userSpaceOnUse" id="color-3"><stop offset="0" stop-color="#d1d2d3"/><stop offset="1" stop-color="#a4a5a8"/></linearGradient><linearGradient x1="194.5004" y1="180.0002" x2="285.5004" y2="180.0002" gradientUnits="userSpaceOnUse" id="color-4"><stop offset="0.012" stop-color="#a7a9ac"/><stop offset="1" stop-color="#414042"/></linearGradient><linearGradient x1="197.9135" y1="179.39661" x2="282.0864" y2="179.39661" gradientUnits="userSpaceOnUse" id="color-5"><stop offset="0" stop-color="#d1d2d3"/><stop offset="1" stop-color="#a4a5a8"/></linearGradient></defs><g transform="translate(-194.4995,-133.72129)"><g data-paper-data="{&quot;isPaintingLayer&quot;:true}" fill-rule="nonzero" stroke="none" stroke-linecap="butt" stroke-linejoin="miter" stroke-miterlimit="10" stroke-dasharray="" stroke-dashoffset="0" style="mix-blend-mode: normal"><path d="M210.24887,137.29745v-3.57616h0.39735v3.57616z" fill="url(#color-1)" stroke-width="0"/><text transform="translate(219.80455,185.62748) scale(0.62057,0.65285)" font-size="40" xml:space="preserve" fill="#a24141" fill-rule="nonzero" stroke="none" stroke-width="1" stroke-linecap="butt" stroke-linejoin="miter" stroke-miterlimit="10" stroke-dasharray="" stroke-dashoffset="0" font-family="Sans Serif" font-weight="normal" text-anchor="start" style="mix-blend-mode: normal"><tspan x="0" dy="0">清空</tspan></text><path d="M286.76253,197.98204c0,4.4727 -3.90745,8.09924 -8.72434,8.09924h-74.81537c-4.8179,0 -8.72332,-3.62748 -8.72332,-8.09924v-35.26109c0,-4.4727 3.90542,-8.09829 8.72332,-8.09829h74.81436c4.81993,0 8.72434,3.62559 8.72434,8.09829v35.26109z" fill="url(#color-2)" stroke-width="1"/><path d="M283.30068,162.43816v35.82857c0,2.73721 -2.35927,4.96371 -5.26299,4.96371h-74.81436c-2.90068,0 -5.26198,-2.2265 -5.26198,-4.96371v-35.82953c0,-2.73721 2.3613,-4.96371 5.26198,-4.96371h74.81436c2.90372,0 5.26299,2.22745 5.26299,4.96466z" fill="url(#color-3)" stroke-width="1"/><text transform="translate(216.48148,187.59683) scale(0.60374,0.60374)" font-size="40" xml:space="preserve" fill="#151515" fill-rule="nonzero" stroke="none" stroke-width="1" stroke-linecap="butt" stroke-linejoin="miter" stroke-miterlimit="10" stroke-dasharray="" stroke-dashoffset="0" font-family="Sans Serif" font-weight="normal" text-anchor="start" style="mix-blend-mode: normal"><tspan x="0" dy="0">清空</tspan></text><path d="M285.5005,197.38893c0,4.41152 -3.854,7.98845 -8.605,7.98845h-73.792c-4.752,0 -8.604,-3.57786 -8.604,-7.98845v-34.77877c0,-4.41152 3.852,-7.98752 8.604,-7.98752h73.791c4.754,0 8.605,3.576 8.605,7.98752v34.77877z" fill="url(#color-4)" stroke-width="1"/><path d="M282.0855,161.72707v35.33849c0,2.69977 -2.327,4.89581 -5.191,4.89581h-73.791c-2.861,0 -5.19,-2.19604 -5.19,-4.89581v-35.33943c0,-2.69977 2.329,-4.89581 5.19,-4.89581h73.791c2.864,0 5.191,2.19698 5.191,4.89675z" fill="url(#color-5)" stroke-width="1"/><text transform="translate(220.1246,184.90594) scale(0.5,0.5)" font-size="40" xml:space="preserve" fill="#000000" fill-rule="nonzero" stroke="none" stroke-width="1" stroke-linecap="butt" stroke-linejoin="miter" stroke-miterlimit="10" stroke-dasharray="" stroke-dashoffset="0" font-family="Sans Serif" font-weight="normal" text-anchor="start" style="mix-blend-mode: normal"><tspan x="0" dy="0">清空</tspan></text></g></g></svg>