<svg version="1.1" xmlns="http://www.w3.org/2000/svg" xmlns:xlink="http://www.w3.org/1999/xlink" width="305" height="41" viewBox="0,0,305,41"><defs><radialGradient cx="161.56436" cy="117.50681" r="152.5" gradientUnits="userSpaceOnUse" id="color-1"><stop offset="0" stop-color="#c6c6c6"/><stop offset="1" stop-color="#ffffff"/></radialGradient></defs><g transform="translate(-9.06436,-97.00681)"><g data-paper-data="{&quot;isPaintingLayer&quot;:true}" fill-rule="nonzero" stroke="none" stroke-linecap="butt" stroke-linejoin="miter" stroke-miterlimit="10" stroke-dasharray="" stroke-dashoffset="0" style="mix-blend-mode: normal"><path d="M219.77201,133.06043c0.12327,-0.75065 0.25853,-1.50219 0.4069,-2.25471c1.91044,-9.6891 6.95489,-18.50061 6.49183,-28.54892h43.12669c1.02796,1.65153 0.42184,4.44459 0.86705,6.49087c1.34832,6.19724 3.87354,12.23039 5.56014,18.36669c0.54488,1.98241 1.0952,3.96415 1.64665,5.94607z" fill="#b2b2b2" stroke-width="0"/><path d="M173.13541,133.06043c0.0064,-2.26415 0.23877,-4.67172 0.23877,-6.7404c0,-8.07327 0.29825,-16.07833 -0.41772,-24.06323h37.84691c0.4298,0.29993 0.90893,0.53405 1.42277,0.68776c0.0498,1.32914 0.1972,2.59527 0.48263,3.72339c0.41787,1.65159 1.7738,3.00009 2.05204,4.68085l-0.02433,2.26873c0,0 0,0.395 0.11102,0.96297c-1.49076,4.76979 -3.51316,9.48811 -4.38999,13.88123c-0.34561,1.73157 -0.63506,3.23326 -0.87954,4.5987z" fill="#b2b2b2" stroke-width="0"/><path d="M109.50408,133.06043c-0.06002,-2.24661 -0.1947,-4.49781 -0.1947,-6.7404c0,-3.65816 0.57449,-7.84028 -0.09022,-11.43891c-0.65657,-3.55453 -1.98918,-6.86606 -2.75143,-10.43996c-0.15389,-0.72151 -0.23256,-1.45049 -0.26253,-2.18435h56.72894c0.83705,7.97115 0.44004,16.01699 0.44004,24.06323c0,2.11364 -0.15064,4.45649 -0.17129,6.7404z" fill="#b2b2b2" stroke-width="0"/><path d="M41.24624,133.06043c-2.49645,-1.50396 -5.35654,-2.59325 -8.16455,-2.88035v-21.30832c2.6562,-1.52223 4.91784,-3.68045 7.04526,-6.04961c0.17129,-0.19075 0.37837,-0.37866 0.60697,-0.56534h55.55847c0.00424,1.33344 0.08793,2.65917 0.3358,3.9686c0.29255,1.54546 1.32756,2.88022 1.65685,4.41827c0.23498,1.0975 -0.19084,2.26285 0.00999,3.36711c0.17739,0.97538 0.89007,1.79352 1.10456,2.76141c0.56938,2.56934 0.03272,5.89891 -0.07296,8.69743c-0.83997,1.65022 -0.47245,3.48784 -0.47245,3.48784c0.86105,2.39382 -0.04165,2.01757 -2.27078,4.10297z" fill="#b2b2b2" stroke-width="0"/><path d="M46.04369,125.62053c0,4.17877 -2.95739,7.56634 -6.60553,7.56634c-3.64814,0 -6.60554,-3.38757 -6.60554,-7.56634c0,-4.17878 2.9574,-7.56634 6.60554,-7.56634c3.64814,0 6.60553,3.38756 6.60553,7.56634z" fill="#b2b2b2" stroke-width="0"/><path d="M48.06421,110.33949c0,4.12024 -3.34013,7.46036 -7.46037,7.46036c-4.12024,0 -7.46037,-3.34012 -7.46037,-7.46036c0,-4.12024 3.34012,-7.46037 7.46037,-7.46037c4.12024,0 7.46037,3.34013 7.46037,7.46037z" fill="#b2b2b2" stroke-width="0"/><path d="" fill="#b2b2b2" stroke-width="0"/><path d="M92.13222,125.22894c-0.90586,-1.81172 0.39013,-2.88948 0.91465,-3.2333c0.20833,-2.37278 0.79952,-4.53796 1.04272,-6.9676c0.27992,-2.79654 -0.01216,-5.77707 -0.01216,-8.59018c0,0 0,-2.5 2.5,-2.5c2.5,0 2.5,2.5 2.5,2.5c0,2.97749 0.28368,6.12201 -0.01217,9.08286c-0.28136,2.81588 -1.10622,5.17974 -1.09239,8.0379l-2.48654,2.78835c0,0 -2.23606,1.11804 -3.3541,-1.11803z" fill="#b2b2b2" stroke-width="0.5"/><path d="M107.38479,114.88467c-2.37171,-0.79057 -1.58114,-3.16227 -1.58114,-3.16227l0.6028,-1.79476c0.74686,-1.77371 0.95134,-3.77455 0.92575,-5.69892c0,0 0,-2.5 2.5,-2.5c2.5,0 2.5,2.5 2.5,2.5c-0.02656,2.55455 -0.3657,5.17168 -1.28337,7.55587l-0.50177,1.51894c0,0 -0.79057,2.37171 -3.16227,1.58114z" fill="#b2b2b2" stroke-width="0.5"/><path d="M112.8758,131.16158c-2.08012,1.38675 -3.46688,-0.69338 -3.46688,-0.69338l-1.34563,-2.11512c-1.38031,-3.58618 -1.28337,-6.51751 -1.28337,-10.31728c0,0 0,-2.5 2.5,-2.5c2.5,0 2.5,2.5 2.5,2.5c0,3.10742 -0.29408,5.56337 0.92575,8.46033l0.8635,1.19857c0,0 1.38675,2.08013 -0.69338,3.46688z" fill="#b2b2b2" stroke-width="0.5"/><path d="M104.30937,131.84286v-28.16642h8.83652v28.16642z" fill="#b2b2b2" stroke-width="0"/><path d="M208.13854,129.08144v-25.40501h2.20913v25.40501z" fill="#b2b2b2" stroke-width="0"/><path d="M208.13854,132.94742v-30.37555h5.52283v30.37555z" fill="#b2b2b2" stroke-width="0"/><path d="M221.94561,115.82667v-9.38881h6.62739v9.38881z" fill="#b2b2b2" stroke-width="0"/><path d="M271.09877,117.48351v-8.28424h5.52283v8.28424z" fill="#b2b2b2" stroke-width="0"/><path d="M9.06436,138.00681v-41h305v41z" fill="url(#color-1)" stroke-width="0"/></g></g></svg>