<svg version="1.1" xmlns="http://www.w3.org/2000/svg" xmlns:xlink="http://www.w3.org/1999/xlink" width="91.001" height="53.14696" viewBox="0,0,91.001,53.14696"><defs><linearGradient x1="194.5004" y1="180.71407" x2="285.5004" y2="180.71407" gradientUnits="userSpaceOnUse" id="color-1"><stop offset="0.012" stop-color="#a7a9ac"/><stop offset="1" stop-color="#414042"/></linearGradient><linearGradient x1="197.914" y1="180.00076" x2="282.0869" y2="180.00076" gradientUnits="userSpaceOnUse" id="color-2"><stop offset="0" stop-color="#d1d2d3"/><stop offset="1" stop-color="#a4a5a8"/></linearGradient></defs><g transform="translate(-194.4995,-153.65816)"><g data-paper-data="{&quot;isPaintingLayer&quot;:true}" fill-rule="nonzero" stroke="none" stroke-width="1" stroke-linecap="butt" stroke-linejoin="miter" stroke-miterlimit="10" stroke-dasharray="" stroke-dashoffset="0" style="mix-blend-mode: normal"><text transform="translate(214.19327,174.00774) scale(0.43099,0.43099)" font-size="40" xml:space="preserve" fill="#000000" fill-rule="nonzero" stroke="none" stroke-width="1" stroke-linecap="butt" stroke-linejoin="miter" stroke-miterlimit="10" stroke-dasharray="" stroke-dashoffset="0" font-family="Sans Serif" font-weight="normal" text-anchor="start" style="mix-blend-mode: normal"><tspan x="0" dy="0">下一个</tspan></text><path d="M285.5005,198.59195c0,4.53562 -3.854,8.21317 -8.605,8.21317h-73.792c-4.752,0 -8.604,-3.67851 -8.604,-8.21317v-35.75711c0,-4.53562 3.852,-8.21221 8.604,-8.21221h73.791c4.754,0 8.605,3.67659 8.605,8.21221v35.75711z" fill="url(#color-1)"/><path d="M282.086,162.33123v35.33849c0,2.69977 -2.327,4.89581 -5.191,4.89581h-73.791c-2.861,0 -5.19,-2.19604 -5.19,-4.89581v-35.33943c0,-2.69977 2.329,-4.89581 5.19,-4.89581h73.791c2.864,0 5.191,2.19698 5.191,4.89675z" fill="url(#color-2)"/><text transform="translate(219.61873,197.62276) scale(0.5,0.5)" font-size="40" xml:space="preserve" fill="#000000" fill-rule="nonzero" stroke="none" stroke-width="1" stroke-linecap="butt" stroke-linejoin="miter" stroke-miterlimit="10" stroke-dasharray="" stroke-dashoffset="0" font-family="Sans Serif" font-weight="normal" text-anchor="start" style="mix-blend-mode: normal"><tspan x="0" dy="0">背景</tspan></text><text transform="translate(210.13033,175.19722) scale(0.5,0.5)" font-size="40" xml:space="preserve" fill="#000000" fill-rule="nonzero" stroke="none" stroke-width="1" stroke-linecap="butt" stroke-linejoin="miter" stroke-miterlimit="10" stroke-dasharray="" stroke-dashoffset="0" font-family="Sans Serif" font-weight="normal" text-anchor="start" style="mix-blend-mode: normal"><tspan x="0" dy="0">下一个</tspan></text></g></g></svg>